<?xml version="1.0" encoding="UTF-8" standalone="no"?>
<!DOCTYPE svg PUBLIC "-//W3C//DTD SVG 1.1//EN" "http://www.w3.org/Graphics/SVG/1.1/DTD/svg11.dtd">
<svg width="100%" height="100%" viewBox="0 0 114 114" version="1.1" xmlns="http://www.w3.org/2000/svg" xmlns:xlink="http://www.w3.org/1999/xlink" xml:space="preserve" xmlns:serif="http://www.serif.com/" style="fill-rule:evenodd;clip-rule:evenodd;stroke-linecap:round;stroke-linejoin:round;">
    <g transform="matrix(1,0,0,1,-1982.99,-530.985)">
        <g transform="matrix(1.16548,0,0,1.10195,1823.4,394.767)">
            <g id="Icon" transform="matrix(0.858013,0,0,0.907485,-3224.99,-1435.83)">
                <g>
                    <g transform="matrix(-0.191794,-0.715786,0.715786,-0.191794,4329.14,4673.64)">
                        <path d="M3901.56,610.734C3893.53,610.261 3886.06,608.1 3879.2,604.877C3872.24,601.608 3866.04,597.093 3860.8,591.633C3858.71,589.457 3856.76,587.149 3854.97,584.709C3853.2,582.281 3851.57,579.733 3850.13,577.066C3845.89,569.224 3843.21,560.381 3842.89,550.868C3842.57,543.321 3843.64,536.055 3845.94,529.307C3848.37,522.203 3852.08,515.696 3856.83,510.049L3855.79,509.095C3850.39,514.54 3846.02,520.981 3842.9,528.125C3839.84,535.125 3838.03,542.781 3837.68,550.868C3837.34,561.391 3839.51,571.425 3843.79,580.306C3845.27,583.38 3847.03,586.304 3849.01,589.049C3851.01,591.806 3853.24,594.39 3855.69,596.742C3861.75,602.568 3869,607.19 3877.03,610.1C3884.66,612.867 3892.96,614.059 3901.56,613.552L3901.56,610.734Z" style="fill:rgb(31,136,192);"/>
                    </g>
                    <g transform="matrix(-0.191794,-0.715786,0.715786,-0.191794,4329.14,4673.64)">
                        <path d="M3875.69,496.573C3879.62,494.538 3883.8,492.897 3888.2,491.786C3892.49,490.704 3896.96,490.124 3901.56,490.032C3903.82,490.13 3906.03,490.332 3908.21,490.688C3917.13,492.147 3925.19,495.814 3932.31,500.683C3936.13,503.294 3939.59,506.335 3942.81,509.619C3947.09,513.98 3950.89,518.816 3953.85,524.232C3958.2,532.197 3960.96,541.186 3961.32,550.868C3961.61,558.748 3960.46,566.345 3957.88,573.322C3956.09,578.169 3953.7,582.753 3950.66,586.838C3947.22,591.461 3942.96,595.427 3938.27,598.769C3933.66,602.055 3928.53,604.619 3923.09,606.478C3922.37,606.721 3921.6,606.805 3920.93,607.167C3920.42,607.448 3920.14,607.854 3919.69,608.224L3920.37,610.389C3920.98,610.432 3921.47,610.573 3922.07,610.474C3922.86,610.344 3923.55,609.883 3924.28,609.566C3931.99,606.216 3938.82,601.355 3944.57,595.428C3947.02,592.903 3949.25,590.174 3951.31,587.319C3953.59,584.168 3955.66,580.853 3957.43,577.348C3961.47,569.34 3964.01,560.422 3964.36,550.868C3964.74,540.511 3962.66,530.628 3958.48,521.868C3955.57,515.775 3951.72,510.163 3946.95,505.478C3943.37,501.962 3939.26,498.99 3934.84,496.562C3926.88,492.192 3917.87,489.76 3908.37,489.229C3906.12,489.104 3903.86,489.054 3901.56,489.154C3896.87,489.06 3892.3,489.519 3887.89,490.397C3883.3,491.309 3878.89,492.683 3874.71,494.525L3875.69,496.573Z" style="fill:rgb(31,136,192);"/>
                    </g>
                </g>
                <g>
                    <g transform="matrix(-3.37109,-0.514565,0.514565,-3.37109,4078.07,1806.88)">
                        <path d="M22,12C22,10.903 21.097,10 20,10C19.421,10 18.897,10.251 18.53,10.649C18.202,11.006 18,11.481 18,12C18,13.097 18.903,14 20,14C21.097,14 22,13.097 22,12Z" style="fill:none;fill-rule:nonzero;stroke:rgb(31,136,192);stroke-width:1.05px;"/>
                    </g>
                    <g transform="matrix(-5.33921,-5.26159,-3.12106,-6.96393,4073.87,1861.55)">
                        <path d="M10.315,5.333C10.315,5.333 9.748,5.921 9.03,6.673C7.768,7.995 6.054,9.805 6.054,9.805L6.237,9.86C6.237,9.86 8.045,8.077 9.36,6.771C10.107,6.028 10.689,5.444 10.689,5.444L10.315,5.333Z" style="fill:rgb(31,136,192);"/>
                    </g>
                </g>
                <g id="Padlock" transform="matrix(3.11426,0,0,3.11426,3938.31,1737.25)">
                    <g>
                        <path d="M9.876,21L18.162,21C18.625,21 19,20.625 19,20.162L19,11.838C19,11.375 18.625,11 18.162,11L5.838,11C5.375,11 5,11.375 5,11.838L5,16.758" style="fill:none;stroke:rgb(34,182,56);stroke-width:1.89px;stroke-linecap:butt;stroke-linejoin:miter;"/>
                        <path d="M8,11L8,7C8,4.806 9.806,3 12,3C14.194,3 16,4.806 16,7L16,11" style="fill:none;fill-rule:nonzero;stroke:rgb(34,182,56);stroke-width:1.89px;"/>
                    </g>
                </g>
                <g>
                    <g transform="matrix(5.30977,0.697415,-0.697415,5.30977,3852.72,1727.97)">
                        <path d="M22,12C22,11.659 21.913,11.337 21.76,11.055C21.421,10.429 20.756,10 20,10C18.903,10 18,10.903 18,12C18,13.097 18.903,14 20,14C21.097,14 22,13.097 22,12Z" style="fill:none;fill-rule:nonzero;stroke:rgb(31,136,192);stroke-width:0.98px;"/>
                    </g>
                    <g transform="matrix(4.93114,2.49604,1.11018,5.44847,3921.41,1726.72)">
                        <path d="M8.902,6.77C8.902,6.77 7.235,8.253 6.027,9.366C5.343,9.996 4.819,10.502 4.819,10.502L5.52,11.164C5.52,11.164 6.021,10.637 6.646,9.951C7.749,8.739 9.219,7.068 9.219,7.068L8.902,6.77Z" style="fill:rgb(31,136,192);"/>
                    </g>
                </g>
            </g>
        </g>
    </g>
</svg>
